<svg width="82" height="70" viewBox="0 0 82 70" fill="none" xmlns="http://www.w3.org/2000/svg">
<path d="M76.5 34.5C76.5 49.964 54.33 69.5 35 69.5C15.67 69.5 0 56.964 0 41.5C0 26.036 43.67 0 63 0C82.33 0 76.5 19.036 76.5 34.5Z" fill="#F7CB15"/>
<path d="M44.0312 54.75H39.8125C39.4395 54.75 39.0819 54.6183 38.8181 54.3839C38.5544 54.1495 38.4062 53.8315 38.4062 53.5V46C38.4062 45.6685 38.5544 45.3505 38.8181 45.1161C39.0819 44.8817 39.4395 44.75 39.8125 44.75H79.1875C79.5605 44.75 79.9181 44.8817 80.1819 45.1161C80.4456 45.3505 80.5938 45.6685 80.5938 46V53.5C80.5938 53.8315 80.4456 54.1495 80.1819 54.3839C79.9181 54.6183 79.5605 54.75 79.1875 54.75H74.9688" stroke="#202020" stroke-width="2" stroke-miterlimit="10" stroke-linecap="round" stroke-linejoin="round"/>
<path d="M46.8438 49.75L41.2188 59.75H77.7812L72.1562 49.75" stroke="#202020" stroke-width="2" stroke-miterlimit="10" stroke-linecap="round" stroke-linejoin="round"/>
<path d="M44.0312 49.75H74.9688M80.2422 45.1875L76.375 41V22.25H42.625V41L38.7578 45.1875H80.2422Z" stroke="#202020" stroke-width="2" stroke-miterlimit="10" stroke-linecap="round" stroke-linejoin="round"/>
<path d="M59.5 37.25C62.6066 37.25 65.125 35.0114 65.125 32.25C65.125 29.4886 62.6066 27.25 59.5 27.25C56.3934 27.25 53.875 29.4886 53.875 32.25C53.875 35.0114 56.3934 37.25 59.5 37.25Z" stroke="#202020" stroke-width="2" stroke-miterlimit="10" stroke-linecap="round" stroke-linejoin="round"/>
<path d="M59.5 34.75C61.0533 34.75 62.3125 33.6307 62.3125 32.25C62.3125 30.8693 61.0533 29.75 59.5 29.75C57.9467 29.75 56.6875 30.8693 56.6875 32.25C56.6875 33.6307 57.9467 34.75 59.5 34.75Z" stroke="#202020" stroke-width="2" stroke-miterlimit="10" stroke-linecap="round" stroke-linejoin="round"/>
<path d="M71.4531 27.25C71.4531 27.5815 71.305 27.8995 71.0412 28.1339C70.7775 28.3683 70.4198 28.5 70.0469 28.5H68.6406C68.2677 28.5 67.91 28.3683 67.6463 28.1339C67.3825 27.8995 67.2344 27.5815 67.2344 27.25C67.2344 26.9185 67.3825 26.6005 67.6463 26.3661C67.91 26.1317 68.2677 26 68.6406 26H70.0469C70.4198 26 70.7775 26.1317 71.0412 26.3661C71.305 26.6005 71.4531 26.9185 71.4531 27.25Z" stroke="#202020" stroke-width="2" stroke-miterlimit="10" stroke-linecap="round" stroke-linejoin="round"/>
<path d="M49.6562 36.625C50.0446 36.625 50.3594 36.3452 50.3594 36C50.3594 35.6548 50.0446 35.375 49.6562 35.375C49.2679 35.375 48.9531 35.6548 48.9531 36C48.9531 36.3452 49.2679 36.625 49.6562 36.625Z" stroke="#202020" stroke-width="2" stroke-miterlimit="10" stroke-linecap="round" stroke-linejoin="round"/>
</svg>
