<svg width="83" height="70" viewBox="0 0 83 70" fill="none" xmlns="http://www.w3.org/2000/svg">
<path d="M0.800491 35.2518C0.800491 19.6766 22.3038 0 41.0525 0C59.8012 0 75 12.6262 75 28.2014C75 43.7767 32.6432 70 13.8945 70C-4.85416 70 0.800491 50.827 0.800491 35.2518Z" fill="#B4EDD2"/>
<path d="M39.4062 27.5V50H81.5938V27.5H39.4062ZM39.4062 20H81.5938V27.5H39.4062V20Z" stroke="#202020" stroke-width="2" stroke-linecap="round" stroke-linejoin="round"/>
<path d="M68.9375 33.75L73.8594 38.75L68.9375 43.75M52.0625 33.75L47.1406 38.75L52.0625 43.75M63.3125 32.5L57.6875 45" stroke="#202020" stroke-width="2" stroke-linecap="round" stroke-linejoin="round"/>
<path d="M43.625 24.375C44.0133 24.375 44.3281 24.0952 44.3281 23.75C44.3281 23.4048 44.0133 23.125 43.625 23.125C43.2367 23.125 42.9219 23.4048 42.9219 23.75C42.9219 24.0952 43.2367 24.375 43.625 24.375Z" stroke="#202020" stroke-width="2" stroke-linecap="round" stroke-linejoin="round"/>
<path d="M48.5469 24.375C48.9352 24.375 49.25 24.0952 49.25 23.75C49.25 23.4048 48.9352 23.125 48.5469 23.125C48.1585 23.125 47.8438 23.4048 47.8438 23.75C47.8438 24.0952 48.1585 24.375 48.5469 24.375Z" stroke="#202020" stroke-width="2" stroke-linecap="round" stroke-linejoin="round"/>
<path d="M53.4688 24.375C53.8571 24.375 54.1719 24.0952 54.1719 23.75C54.1719 23.4048 53.8571 23.125 53.4688 23.125C53.0804 23.125 52.7656 23.4048 52.7656 23.75C52.7656 24.0952 53.0804 24.375 53.4688 24.375Z" stroke="#202020" stroke-width="2" stroke-linecap="round" stroke-linejoin="round"/>
</svg>
