<svg width="83" height="64" viewBox="0 0 83 64" fill="none" xmlns="http://www.w3.org/2000/svg">
<path d="M73.9289 31.7107C68.7339 59.067 74.1455 64 50.7512 64C27.3568 64 0 32.7497 0 14.6691C0 -3.41155 18.1656 0.318156 41.56 0.318156C64.9544 0.318156 79.1239 4.3544 73.9289 31.7107Z" fill="#7D83FF"/>
<path d="M72.3109 32.2773C73.4093 31.301 73.4093 29.7181 72.3109 28.7418C71.2126 27.7654 69.4318 27.7654 68.3335 28.7418C67.2351 29.7181 67.2351 31.301 68.3335 32.2773C69.4318 33.2536 71.2126 33.2536 72.3109 32.2773Z" stroke="#202020" stroke-width="2" stroke-miterlimit="10" stroke-linecap="round" stroke-linejoin="round"/>
<path d="M62.5077 28.5006C63.6061 27.5242 63.6061 25.9413 62.5077 24.965C61.4094 23.9887 59.6286 23.9887 58.5302 24.965C57.4319 25.9413 57.4319 27.5242 58.5302 28.5006C59.6286 29.4769 61.4094 29.4769 62.5077 28.5006Z" stroke="#202020" stroke-width="2" stroke-miterlimit="10" stroke-linecap="round" stroke-linejoin="round"/>
<path d="M52.8301 31.2008C53.6539 30.4686 53.6539 29.2814 52.8301 28.5492C52.0064 27.8169 50.6708 27.8169 49.847 28.5492C49.0233 29.2814 49.0233 30.4686 49.847 31.2008C50.6708 31.9331 52.0064 31.9331 52.8301 31.2008Z" stroke="#202020" stroke-width="2" stroke-miterlimit="10" stroke-linecap="round" stroke-linejoin="round"/>
<path d="M50.9915 40.852C52.3644 39.6317 52.3644 37.653 50.9915 36.4326C49.6185 35.2122 47.3926 35.2122 46.0196 36.4326C44.6467 37.653 44.6467 39.6317 46.0196 40.852C47.3926 42.0724 49.6185 42.0724 50.9915 40.852Z" stroke="#202020" stroke-width="2" stroke-miterlimit="10" stroke-linecap="round" stroke-linejoin="round"/>
<path d="M51.2893 46.75C58.3908 46.75 63.3127 44.3125 62.6096 48.875C62.1877 51.5625 56.2815 49.125 56.2815 53.5625C56.2815 55.625 58.3908 56.625 61.2736 56.75C64.7972 56.6356 68.2314 55.7328 71.258 54.125L71.7502 53.8125L72.6643 53.3125C75.7253 51.3945 78.1567 48.7867 79.7086 45.757C81.2606 42.7273 81.8771 39.3849 81.4948 36.0734C81.1126 32.7618 79.7453 29.6003 77.5335 26.9139C75.3218 24.2275 72.3453 22.1129 68.9098 20.7875C65.4744 19.462 61.7039 18.9735 57.9857 19.3721C54.2676 19.7706 50.7358 21.0419 47.7534 23.0554C44.7709 25.0688 42.4453 27.7517 41.0154 30.8285C39.5855 33.9053 39.103 37.265 39.6174 40.5625C40.4611 44.4375 44.258 46.75 51.2893 46.75Z" stroke="#202020" stroke-width="2" stroke-miterlimit="10" stroke-linecap="round" stroke-linejoin="round"/>
</svg>
