<svg width="625" height="514" viewBox="0 0 625 514" fill="none" xmlns="http://www.w3.org/2000/svg">
<path d="M599.299 335.106C517.798 442.106 568.298 509.606 382.299 513.106C196.299 516.606 -51.2018 335.106 9.29813 214.606C84.4393 29.3123 108.099 29.8561 334.799 2.10608C561.499 -25.644 680.799 228.107 599.299 335.106Z" fill="#FCB5B5"/>
<g clip-path="url(#clip0)">
<path d="M269.21 130.353C281.788 130.353 294.814 134.594 307.207 131.44" stroke="black" stroke-width="2" stroke-miterlimit="1.5" stroke-linecap="round" stroke-linejoin="round"/>
<path d="M331.724 169.919C330.006 171.567 330.64 174.266 331.709 176.055C332.013 176.565 334.177 178.198 334.902 178.358C336.504 178.711 338.34 178.964 339.927 178.423C340.611 178.19 341.167 177.757 341.713 177.339C342.635 176.632 343.513 175.828 343.984 174.808C344.267 174.195 344.917 171.92 344.642 171.025C344.407 170.262 343.692 169.532 343.124 168.947C342.493 168.296 341.251 167.964 340.275 167.779" stroke="black" stroke-width="2" stroke-miterlimit="1.5" stroke-linecap="round" stroke-linejoin="round"/>
<path fill-rule="evenodd" clip-rule="evenodd" d="M337.243 170.762C336.649 170.676 336.066 171.168 335.751 171.344C335.177 171.663 334.757 172.341 334.847 172.95C334.913 173.397 335.308 173.919 335.674 174.213C336.335 174.743 337.498 174.917 338.353 174.731C339.293 174.527 339.774 173.843 340.139 173.092C340.354 172.65 340.171 171.597 339.516 171.215C339.119 170.984 337.572 170.647 337.243 170.762Z" stroke="black" stroke-width="2" stroke-miterlimit="1.5" stroke-linecap="round" stroke-linejoin="round"/>
<path d="M319.133 179.831C320.796 179.666 326.715 179.837 328.503 179.977C331.319 180.198 334.008 180.983 336.807 181.261C341.377 181.715 347.163 180.819 350.656 177.933C351.969 176.847 353.968 173.767 354.271 172.139" stroke="black" stroke-width="2" stroke-miterlimit="1.5" stroke-linecap="round" stroke-linejoin="round"/>
<path d="M318.972 179.752C320.351 177.61 321.277 176.53 323.48 175.011C324.736 174.145 326.302 172.351 327.654 171.609C331.333 169.591 334.616 167.877 339.112 167.749C344.743 167.587 350.797 168.061 354.23 172.148" stroke="black" stroke-width="2" stroke-miterlimit="1.5" stroke-linecap="round" stroke-linejoin="round"/>
<path d="M315.882 200.681C318.875 205.069 322.071 210.535 320.363 215.83" stroke="black" stroke-width="2" stroke-miterlimit="1.5" stroke-linecap="round" stroke-linejoin="round"/>
<path d="M310.357 184.306C310.036 187.897 309.905 192.151 312.049 195.342" stroke="black" stroke-width="2" stroke-miterlimit="1.5" stroke-linecap="round" stroke-linejoin="round"/>
<path d="M285.146 212.142C284.003 213.863 282.894 216.555 283.148 218.577C283.347 220.165 284.472 221.821 285.525 223.049C286.943 224.703 288.287 226.3 290.309 227.439" stroke="black" stroke-width="2" stroke-miterlimit="1.5" stroke-linecap="round" stroke-linejoin="round"/>
<path d="M321.644 204.496C323.131 206.11 324.437 207.803 325.791 209.503C326.558 210.467 327.477 211.35 327.922 212.48C329.08 215.425 327.875 218.537 325.701 220.798" stroke="black" stroke-width="2" stroke-miterlimit="1.5" stroke-linecap="round" stroke-linejoin="round"/>
<path d="M302.833 224.292C303.698 224.626 304.592 224.96 305.534 225.078C308.882 225.498 312.413 224.09 315.252 222.638" stroke="black" stroke-width="2" stroke-miterlimit="1.5" stroke-linecap="round" stroke-linejoin="round"/>
<path d="M211.13 183.889C213.018 183.757 214.918 183.842 216.811 183.792C217.913 183.763 219.095 183.668 220.005 184.336C220.85 184.958 220.994 185.886 221.121 186.797C221.327 188.277 221.736 189.749 222.099 191.211C222.369 192.298 222.961 193.532 223.194 194.624C223.532 196.207 224.295 197.841 224.902 199.358C225.564 201.013 226.435 202.451 227.315 204.018C227.951 205.15 228.522 206.025 229.091 207.181" stroke="black" stroke-width="2" stroke-miterlimit="1.5" stroke-linecap="round" stroke-linejoin="round"/>
<path d="M229.032 207.13C229.704 208.089 230.373 209.244 231.073 210.184C231.769 211.12 232.98 212.123 233.677 213.061C234.425 214.069 235.392 214.515 236.519 215.149C240.089 217.157 243.521 217.421 247.407 217.553C249.253 217.616 251.158 217.563 253.002 217.451C256.842 217.217 260.481 216.963 264.21 216.569C266.017 216.378 268.117 216.167 269.883 215.747C272.121 215.215 273.926 215.03 276.248 214.285" stroke="black" stroke-width="2" stroke-miterlimit="1.5" stroke-linecap="round" stroke-linejoin="round"/>
<path d="M276.06 214.319C277.765 213.783 279.633 212.892 281.096 211.95C282.316 211.164 283.471 210.539 284.592 209.467C287.35 206.827 289.05 205.179 290.308 202.294C290.961 200.796 291.923 199.571 292.418 198.017C293.051 196.029 293.706 194.364 294.053 192.32C294.266 191.06 294.328 189.757 294.571 188.5C295.034 186.099 295.21 183.614 295.243 181.159" stroke="black" stroke-width="2" stroke-miterlimit="1.5" stroke-linecap="round" stroke-linejoin="round"/>
<path d="M295.295 180.984C295.834 178.554 298.506 177.33 301.395 177.181C302.701 177.113 304.093 176.942 305.375 177.088C306.811 177.251 308.512 177.063 309.759 177.987C311.237 179.081 311.507 180.879 311.848 182.44C312.239 184.231 313.142 185.903 313.728 187.655C314.287 189.33 317.097 194.936 317.853 196.214" stroke="black" stroke-width="2" stroke-miterlimit="1.5" stroke-linecap="round" stroke-linejoin="round"/>
<path d="M317.868 196.214C319.535 198.362 321.274 200.696 323.452 202.463C324.79 203.549 326.536 204.36 328.138 205.101C332.123 206.947 336.415 206.488 340.768 206.456C344.617 206.428 348.501 205.968 352.202 205.647C353.835 205.505 359.146 204.568 360.329 204.245C362.126 203.753 363.744 203.504 365.425 202.769C367.393 201.909 369.84 200.563 371.353 199.115C372.721 197.805 372.831 197.378 373.5 195.763C374.117 194.272 374.943 192.313 375.416 190.779C375.912 189.171 376.019 188.174 376.373 186.551" stroke="black" stroke-width="2" stroke-miterlimit="1.5" stroke-linecap="round" stroke-linejoin="round"/>
<path d="M376.41 186.546C376.432 185.799 376.788 182.317 376.739 181.356C376.678 180.156 376.877 178.833 376.913 177.628C376.967 175.755 376.893 173.798 376.788 171.927" stroke="black" stroke-width="2" stroke-miterlimit="1.5" stroke-linecap="round" stroke-linejoin="round"/>
<path d="M376.766 172.113C376.727 169.564 376.064 166.829 374.341 164.74C372.423 162.416 368.708 160.783 365.66 160.009C363.187 159.381 360.514 159.364 357.961 159.312C352.546 159.201 347.402 159.776 341.987 159.839C338.278 159.882 335.257 160.712 331.431 161.554C325.85 162.782 321.465 164.631 316.875 167.526" stroke="black" stroke-width="2" stroke-miterlimit="1.5" stroke-linecap="round" stroke-linejoin="round"/>
<path d="M317.141 167.376C316.091 167.875 313.991 168.934 312.929 169.412C310.886 170.334 309.098 170.699 306.482 170.73C301.126 170.794 295.727 171.382 290.457 170.865C287.925 170.616 285.379 170.441 282.872 170.022C278.8 169.342 274.812 168.428 270.685 167.994C268.127 167.725 265.543 167.922 262.974 167.949C258.175 167.998 253.268 168.132 248.52 168.849" stroke="black" stroke-width="2" stroke-miterlimit="1.5" stroke-linecap="round" stroke-linejoin="round"/>
<path d="M248.563 168.994C245.328 169.332 242.122 169.744 238.976 170.496C234.789 171.498 230.762 172.957 226.523 173.782C223.659 174.339 221.537 175.099 218.624 175.382C216.919 175.547 214.787 175.697 213.141 176.181C211.785 176.579 210.586 176.523 209.908 177.699C209.59 178.251 209.461 184.376 212.106 183.856" stroke="black" stroke-width="2" stroke-miterlimit="1.5" stroke-linecap="round" stroke-linejoin="round"/>
<path d="M365.309 162.622C360.53 161.805 359.826 161.932 354.765 161.926C352.538 161.923 345.654 162.536 343.43 162.674C340.351 162.865 337.377 163.437 334.38 164.057C331.93 164.563 329.448 164.932 327.07 165.687C325.251 166.264 323.619 167.202 321.95 168.054" stroke="black" stroke-width="2" stroke-miterlimit="1.5" stroke-linecap="round" stroke-linejoin="round"/>
<path d="M321.986 168.043C319.96 169.123 317.307 170.943 315.998 172.778C315.53 173.434 315.183 175.743 315.255 176.501C315.435 178.387 315.98 180.227 316.416 182.073C316.934 184.27 317.184 186.549 317.946 188.695C318.506 190.272 319.46 191.723 320.338 193.172C321.172 194.548 321.973 195.983 323.177 197.142C323.774 197.716 326.003 200.206 326.671 200.619" stroke="black" stroke-width="2" stroke-miterlimit="1.5" stroke-linecap="round" stroke-linejoin="round"/>
<path d="M326.731 200.615C328.21 201.737 329.413 202.781 331.095 203.411C335.162 204.934 339.893 204.493 344.249 204.631C346.909 204.715 354.857 203.388 357.616 202.757C359.746 202.269 361.785 201.645 363.863 201C365.752 200.415 367.017 199.382 368.606 198.266C370.234 197.122 372.722 191.374 373.122 190.092C373.65 188.397 374.372 187.06 374.554 185.418C374.987 181.512 374.991 177.545 374.737 173.622C374.628 171.928 374.624 168.918 373.755 167.377C372.802 165.686 371.075 164.983 369.387 163.919C368.021 163.059 366.517 162.585 364.706 162.623" stroke="black" stroke-width="2" stroke-miterlimit="1.5" stroke-linecap="round" stroke-linejoin="round"/>
<path fill-rule="evenodd" clip-rule="evenodd" d="M289.348 176.799C285.892 174.039 281.47 173.072 277.075 172.076C264.628 169.257 250.277 170.695 237.964 173.801C234.172 174.757 230.287 175.954 226.886 177.733C225.485 178.465 224.998 180.186 224.63 181.661C223.894 184.613 224.433 186.823 224.453 189.553C224.474 192.496 226.01 195.902 227.355 198.604C229.95 203.818 230.969 207.801 235.554 212.01C238.373 214.598 245.101 215.703 249.066 215.586C257.253 215.346 265.241 215.203 273.253 213.233C276.679 212.391 279.916 210.566 282.244 208.086C287.476 202.51 290.185 195.748 290.817 188.815C291.037 186.399 290.638 183.268 290.905 180.856C291.062 179.436 290.125 178.123 289.348 176.799V176.799Z" stroke="black" stroke-width="2" stroke-miterlimit="1.5" stroke-linecap="round" stroke-linejoin="round"/>
<path d="M242.11 257.999C236.849 251.016 232.669 243.504 229.6 235.546C228.735 233.302 228.324 230.962 227.48 228.714C226.561 226.265 225.276 223.949 224.33 221.511C223.142 218.446 222.315 215.319 221.328 212.208" stroke="black" stroke-width="2" stroke-miterlimit="1.5" stroke-linecap="round" stroke-linejoin="round"/>
<path d="M221.109 212.155C219.318 209.674 218.532 207.151 217.848 204.305C216.829 200.063 216.362 195.906 216.309 191.572C216.28 189.165 215.814 186.17 216.741 183.852" stroke="black" stroke-width="2" stroke-miterlimit="1.5" stroke-linecap="round" stroke-linejoin="round"/>
<path d="M221.196 174.341C222.914 171.879 222.56 168.515 222.301 165.678C222.138 163.881 222.17 161.928 222.723 160.145C224.463 154.523 228.581 149.53 230.089 143.831" stroke="black" stroke-width="2" stroke-miterlimit="1.5" stroke-linecap="round" stroke-linejoin="round"/>
<path d="M230.106 143.84C231.164 139.505 231.233 135.14 232.443 130.763C233.386 127.352 234.232 124.481 234.803 120.98C234.983 119.873 234.567 114.949 234.306 114.077C233.555 111.573 236.178 106.849 236.663 106.467C237.69 105.658 238.856 104.997 240.016 104.351C241.353 103.607 242.753 102.958 244.235 102.47" stroke="black" stroke-width="2" stroke-miterlimit="1.5" stroke-linecap="round" stroke-linejoin="round"/>
<path d="M244.216 102.489C244.932 102.068 245.073 101.417 245.461 100.85C245.816 100.33 246.219 99.8397 246.726 99.4154C247.54 98.7341 248.385 98.0821 249.189 97.3912C249.653 96.9924 250.046 96.4475 250.694 96.2772C251.715 96.0094 253.8 94.7367 254.746 95.0787C257.229 95.9757 259.17 97.7449 261.195 99.1668C263.134 100.529 265.467 101.04 267.914 101.449C271.205 101.999 273.366 101.619 276.639 101.3C279.984 100.974 283.159 102.804 286.509 103.207C288.883 103.494 290.368 104.486 292.308 105.653C293.987 106.663 295.765 107.595 297.601 108.36C298.961 108.927 300.331 109.587 301.794 109.927C304.759 110.615 307.927 110.776 310.752 111.924" stroke="black" stroke-width="2" stroke-miterlimit="1.5" stroke-linecap="round" stroke-linejoin="round"/>
<path d="M310.913 111.968C312.954 112.687 315.495 113.158 317.185 114.484C318.294 115.356 318.993 116.537 319.8 117.621C321.074 119.331 322.192 121.042 323.237 122.863C325.356 126.555 327.887 130.132 330.398 133.625C331.779 135.547 333.262 137.803 335.292 139.272C338.406 141.526 341.875 141.284 345.529 142.055" stroke="black" stroke-width="2" stroke-miterlimit="1.5" stroke-linecap="round" stroke-linejoin="round"/>
<path d="M242.05 258.058C243.624 260.186 245.351 262.322 247.676 263.857C249.821 265.272 252.343 266.128 254.551 267.455C256.454 268.598 258.173 269.964 260.178 270.98C261.993 271.9 263.96 272.534 265.837 273.339C269.342 274.841 272.842 276.411 276.417 277.773C278.951 278.738 281.569 279.529 284.121 280.454C286.786 281.42 289.212 282.812 291.911 283.726" stroke="black" stroke-width="2" stroke-miterlimit="1.5" stroke-linecap="round" stroke-linejoin="round"/>
<path d="M292.032 283.818C293.618 284.277 295.279 284.442 296.917 284.701C297.974 284.868 299.002 285.141 300.068 285.268C303.656 285.698 307.477 285.686 311.046 285.115C314.102 284.626 317.586 284.1 320.435 283.051C321.903 282.51 324.415 281.735 325.865 281.155C329.59 279.666 331.307 277.631 334.696 275.615" stroke="black" stroke-width="2" stroke-miterlimit="1.5" stroke-linecap="round" stroke-linejoin="round"/>
<path d="M334.701 275.648C336.206 274.539 340.373 270.74 341.284 270.106C342.055 269.569 344.741 267.377 345.787 266.488C346.623 265.777 347.761 265.276 348.523 264.481" stroke="black" stroke-width="2" stroke-miterlimit="1.5" stroke-linecap="round" stroke-linejoin="round"/>
<path d="M357.572 254.454C361.311 250.476 362.944 244.984 363.821 239.888" stroke="black" stroke-width="2" stroke-miterlimit="1.5" stroke-linecap="round" stroke-linejoin="round"/>
<path d="M363.703 240.245C363.892 239.672 363.902 238.899 364.034 238.341C364.648 235.754 365.824 233.537 366.667 231.238C367.655 228.543 367.261 225.585 367.84 222.816C368.364 220.311 369.714 218.284 370.426 215.893" stroke="black" stroke-width="2" stroke-miterlimit="1.5" stroke-linecap="round" stroke-linejoin="round"/>
<path d="M370.419 215.867C370.887 214.228 370.856 212.384 371.099 210.606C371.421 208.261 371.511 205.975 371.794 203.622C371.978 202.088 372.331 198.845 372.524 197.958" stroke="black" stroke-width="2" stroke-miterlimit="1.5" stroke-linecap="round" stroke-linejoin="round"/>
<path d="M371.652 193.092C371.894 190.766 370.984 183.562 370.696 182.03" stroke="black" stroke-width="2" stroke-miterlimit="1.5" stroke-linecap="round" stroke-linejoin="round"/>
<path d="M349.823 148.774C352.638 150.201 355.874 151.597 358.296 153.512C360.718 155.428 362.099 157.505 364.22 159.686" stroke="black" stroke-width="2" stroke-miterlimit="1.5" stroke-linecap="round" stroke-linejoin="round"/>
<path d="M365.342 162.856C367.937 165.648 370.307 168.376 370.346 172.151C370.384 175.846 370.237 178.211 370.667 181.952" stroke="black" stroke-width="2" stroke-miterlimit="1.5" stroke-linecap="round" stroke-linejoin="round"/>
<path d="M316.948 152.822C317.642 154.295 318.118 156.313 320.168 155.933C321.645 155.658 322.299 155.312 324.436 155.085C325.738 154.946 327.385 154.581 328.631 154.22C332.097 153.214 335.187 152.422 338.698 151.609C339.768 151.362 341.391 151.081 342.431 150.765C343.449 150.455 344.552 150.034 345.591 149.784C347.01 149.443 348.026 148.888 349.498 148.777" stroke="black" stroke-width="2" stroke-miterlimit="1.5" stroke-linecap="round" stroke-linejoin="round"/>
<path d="M317.08 153.07C316.839 152.56 316.638 151.751 316.535 151.205C316.461 150.81 316.329 150.392 316.259 149.993C316.123 149.222 316.034 148.672 317.016 148.273C318.052 147.851 319.033 147.46 320.076 147.191C321.641 146.787 321.613 146.884 322.141 146.762C323.322 146.49 323.933 146.575 324.978 146.356C326.981 145.936 328.918 145.695 330.517 145.362C332.165 145.019 333.579 144.733 335.018 144.332C336.339 143.963 337.655 143.564 339.098 143.182C341.134 142.642 343.263 142.407 345.321 141.942" stroke="black" stroke-width="2" stroke-miterlimit="1.5" stroke-linecap="round" stroke-linejoin="round"/>
<path d="M262.551 62.2091C260.811 60.6297 259.077 59.0313 256.967 57.8353C256.211 57.407 255.343 56.8237 254.423 56.7335C251.67 56.4634 249.044 57.7959 246.342 58.0173C241.408 58.4218 236.033 56.9175 231.352 58.7724C227.768 60.1924 225.738 63.887 223.585 66.6008C220.294 70.7486 216.282 74.3509 213.578 78.8828C212.328 80.9797 211.339 83.1322 210.399 85.3499C209.763 86.8513 209.244 88.4427 208.166 89.7524C205.322 93.2095 200.067 91.8371 196.53 94.38C194.04 96.1693 192.81 99.1086 191.857 101.723C190.028 106.738 187.786 112.383 187.666 117.694" stroke="black" stroke-width="2" stroke-miterlimit="1.5" stroke-linecap="round" stroke-linejoin="round"/>
<path d="M187.818 118.005C186.8 120.957 184.662 123.567 183.215 126.361C181.651 129.381 180.695 132.784 178.672 135.598C177.594 137.096 176.128 138.261 174.935 139.672C173.402 141.483 172.312 143.775 171.786 145.984C171.136 148.708 171.503 151.581 171.607 154.337C171.701 156.842 171.633 159.352 171.943 161.846C172.713 168.058 174.145 174.529 173.368 180.798" stroke="black" stroke-width="2" stroke-miterlimit="1.5" stroke-linecap="round" stroke-linejoin="round"/>
<path d="M173.622 180.776C173.452 182.582 173.574 184.68 172.876 186.396C171.802 189.037 169.691 191.052 169.169 193.947C168.361 198.427 171.204 202.996 171.598 207.44C171.998 211.957 169.906 216.83 171.363 221.295C172.883 225.952 180.031 225.206 182.862 228.811C186.181 233.037 183.02 237.503 183.93 242.041" stroke="black" stroke-width="2" stroke-miterlimit="1.5" stroke-linecap="round" stroke-linejoin="round"/>
<path d="M184.063 241.881C184.439 243.574 184.777 245.368 184.868 247.092C184.979 249.182 184.604 251.247 184.599 253.332C184.592 256.333 185.287 259.308 186.314 262.15C186.772 263.416 187.199 264.781 188.134 265.847C189.352 267.236 191.231 268.188 193.045 268.829C194.355 269.292 195.801 269.597 197.212 269.651C199.673 269.746 202.474 269.109 203.949 267.214C205.152 265.668 205.394 264.009 207.263 262.931C208.272 262.35 209.447 262.05 210.498 261.539C210.866 261.36 211.228 261.173 211.568 260.954C211.733 260.848 211.879 260.503 212.043 260.611C212.312 260.787 212.564 260.988 212.799 261.199C216.083 264.152 214.077 268.991 216.786 272.208C218.452 274.186 221.338 275.198 223.647 276.475C224.535 276.966 226.103 277.512 226.282 278.579C226.502 279.886 224.53 280.858 223.463 281.378C220.358 282.89 215.101 285.941 218.896 289.31C219.582 289.919 220.443 290.402 221.321 290.764C223.859 291.809 225.746 290.788 228.073 289.711C231.191 288.269 234.215 286.517 237.504 285.395C238.424 285.08 239.666 285.64 240.508 285.916C242.415 286.542 244.319 287.207 246.371 287.32C252.247 287.642 257.098 283.288 258.135 278.457C258.415 277.151 258.353 275.786 258.377 274.463C258.385 274.033 258.19 270.366 258.373 269.985C258.474 269.773 259.231 273.041 259.303 273.263C259.431 273.652 259.557 274.171 259.583 274.576C259.668 275.921 259.853 276.955 260.105 278.303C260.571 280.794 261.239 283.273 261.735 285.759C261.978 286.975 262.441 288.375 261.737 289.547C260.765 291.165 258.224 291.585 256.391 291.859C253.123 292.347 248.024 292.764 245.554 294.932C242.895 297.267 244.505 301.072 244.285 303.931C244.108 306.228 242.358 308.064 240.949 309.876" stroke="black" stroke-width="2" stroke-miterlimit="1.5" stroke-linecap="round" stroke-linejoin="round"/>
<path d="M240.974 309.956C240.239 311.106 239.506 312.474 238.4 313.371C236.944 314.552 234.978 315.184 233.53 316.38C232.367 317.341 231.617 318.976 229.94 319.278C229.322 319.389 228.605 319.077 228.03 318.933C226.499 318.548 224.597 317.799 223.004 318.38C221.169 319.05 219.524 320.201 218.167 321.466C217.239 322.332 216.456 323.342 215.392 324.086C212.632 326.014 209.166 327.132 206.616 329.273" stroke="black" stroke-width="2" stroke-miterlimit="1.5" stroke-linecap="round" stroke-linejoin="round"/>
<path d="M206.585 329.21C204.506 331.103 202.159 332.735 199.64 334.151C198.277 334.918 196.71 335.387 195.467 336.315C193.987 337.42 192.617 338.617 191.179 339.761C190.239 340.509 189.203 341.149 188.289 341.924C186.695 343.275 185.752 344.613 183.788 345.575C182.304 346.3 180.746 346.876 179.253 347.58C175.558 349.324 171.963 351.215 168.459 353.243C165.928 354.709 162.64 356.553 160.983 358.883" stroke="black" stroke-width="2" stroke-miterlimit="1.5" stroke-linecap="round" stroke-linejoin="round"/>
<path d="M161.309 358.79C158.464 360.081 155.85 361.806 153.231 363.425C151.428 364.54 149.344 365.776 148.394 367.609C147.559 369.22 147.768 371.023 147.477 372.736C147.166 374.561 146.285 376.359 145.176 377.915C142.59 381.544 138.34 384.035 135.873 387.779C134.18 390.347 133.636 393.447 133.324 396.375" stroke="black" stroke-width="2" stroke-miterlimit="1.5" stroke-linecap="round" stroke-linejoin="round"/>
<path d="M179.201 347.646C177.752 349.271 176.324 350.914 174.861 352.527C174.299 353.147 173.635 353.685 173.092 354.32C172.089 355.495 171.246 357.014 170.703 358.41C169.981 360.263 170.218 362.301 170.065 364.224C169.94 365.785 169.625 367.32 169.422 368.872C169.229 370.344 169.139 371.824 168.93 373.295C168.546 376.002 167.939 378.756 168.101 381.493C168.163 382.525 168.714 383.505 169.081 384.471C169.996 386.88 171.017 389.23 173.264 390.899" stroke="black" stroke-width="2" stroke-miterlimit="1.5" stroke-linecap="round" stroke-linejoin="round"/>
<path d="M229.355 319.089C227.559 320.103 225.934 321.291 224.287 322.481C222.836 323.529 221.369 324.534 220.523 326.069C219.046 328.747 220.193 332.3 220.019 335.164C219.794 338.878 219.02 342.503 219.211 346.239C219.363 349.212 219.503 352.207 219.899 355.165C220.183 357.29 220.786 359.318 220.785 361.477C220.781 368.41 217.848 375.075 218.418 382.054" stroke="black" stroke-width="2" stroke-miterlimit="1.5" stroke-linecap="round" stroke-linejoin="round"/>
<path d="M172.944 390.555C174.555 392.68 176.391 394.725 177.154 397.239" stroke="black" stroke-width="2" stroke-miterlimit="1.5" stroke-linecap="round" stroke-linejoin="round"/>
<path d="M218.406 381.631C218.44 387.444 217.346 392.583 217.665 398.055" stroke="black" stroke-width="2" stroke-miterlimit="1.5" stroke-linecap="round" stroke-linejoin="round"/>
<path d="M262.517 62.1878C264.298 63.0274 265.772 61.8029 267.376 61.4791C268.762 61.1993 270.222 60.91 271.543 60.4386C272.75 60.008 273.874 59.4169 275.09 59.0056C278.04 58.0075 281.193 57.5704 284.249 56.9286C285.996 56.5619 287.676 55.8928 289.452 55.648C291.193 55.4079 293.015 55.3941 294.721 55.8274C295.932 56.135 297.075 56.6286 298.26 57.0034C301.004 57.8714 303.673 58.6938 306.367 59.7014C308.661 60.5596 311.062 61.3616 313.469 61.9354C315.087 62.3214 316.728 62.5608 318.338 62.9874C321.281 63.7672 324.168 64.819 326.9 66.0581C328.937 66.9817 331.168 67.7236 332.712 69.2542" stroke="black" stroke-width="2" stroke-miterlimit="1.5" stroke-linecap="round" stroke-linejoin="round"/>
<path d="M332.654 69.0273C336.014 70.8314 339.615 72.2945 342.615 74.5711C345.813 76.9965 347.868 80.2946 350.489 83.1648C352.411 85.2695 354.891 86.9161 356.835 89.0204C358.213 90.5111 359.462 92.1006 360.628 93.7257C361.582 95.0564 362.527 96.6149 363.863 97.6757C367.371 100.461 372.002 101.604 375.991 103.706C379.489 105.549 383.327 107.447 386.392 109.839C388.838 111.747 390.823 114.074 393.026 116.188" stroke="black" stroke-width="2" stroke-miterlimit="1.5" stroke-linecap="round" stroke-linejoin="round"/>
<path d="M393.1 116.242C395.493 117.828 395.662 120.459 397.697 122.407C399.573 124.203 401.707 126.469 403.536 128.304C405.746 130.521 408.14 132.113 410.375 134.3C412.674 136.55 412.616 138.603 414.464 141.225C417.657 145.755 420.235 150.54 422.28 155.524C423.158 157.662 424.825 158.573 425.785 160.675C427.248 163.876 426.309 167.292 426.885 170.681" stroke="black" stroke-width="2" stroke-miterlimit="1.5" stroke-linecap="round" stroke-linejoin="round"/>
<path d="M426.852 170.66C427.151 173.256 426.662 175.436 426.092 177.723C425.679 179.377 424.157 180.245 423.208 181.758C422.099 183.525 421.339 184.983 419.945 186.563C417.864 188.925 418.165 192.702 417.414 195.6C417.086 196.864 415.059 196.298 415.285 197.593C415.501 198.831 414.206 199.162 414.619 200.352C415.142 201.856 415.566 205.751 415.455 207.321C415.238 210.4 414.218 210.844 413.371 213.826C412.781 215.897 411.24 218.755 410.621 220.822C410.324 221.814 412.503 225.086 412.133 226.056C411.977 226.466 412.063 227.153 411.945 227.574C411.496 229.184 410.586 229.25 410.057 230.849" stroke="black" stroke-width="2" stroke-miterlimit="1.5" stroke-linecap="round" stroke-linejoin="round"/>
<path d="M410.058 230.862C408.945 233.009 407.278 234.839 406.279 237.03C405.589 238.542 405.571 240.815 404.701 242.279C403.649 244.049 400.726 245.833 399.301 247.362C394.849 252.139 393.362 255.104 385.819 255.229C383.436 255.269 381.302 257.387 378.924 257.288C377.442 257.226 376.475 257.195 375.066 256.708C374.032 256.351 372.79 255.461 372.225 254.639C372.077 254.423 371.923 254.217 371.751 254.033C371.035 253.266 369.988 252.882 368.882 252.853C368.266 252.837 367.64 252.873 367.036 252.988C365.009 253.373 366.026 255.784 364.894 257.428C364.636 257.803 363.616 258.386 363.068 258.502C362.573 258.607 361.558 258.957 360.335 258.274C359.049 257.557 359.179 253.936 357.784 254.379" stroke="black" stroke-width="2" stroke-miterlimit="1.5" stroke-linecap="round" stroke-linejoin="round"/>
<path d="M357.724 254.424C356.908 254.521 354.52 258.622 353.868 259.611C353.589 260.035 352.722 260.571 352.332 260.914C351.285 261.835 350.243 262.955 349.252 263.93C349.153 264.027 348.45 264.466 348.397 264.612C348.106 265.419 348.155 267.174 348.753 267.792C349.671 268.739 352.145 267.926 353.324 268.347C354.732 268.849 356.133 269.689 357.217 270.623C357.724 271.06 358.15 271.571 358.626 272.034" stroke="black" stroke-width="2" stroke-miterlimit="1.5" stroke-linecap="round" stroke-linejoin="round"/>
<path d="M358.64 272.054C359.271 272.532 359.935 272.943 360.684 273.262C361.233 273.496 361.848 273.633 362.357 273.937C363.1 274.382 363.702 275.001 364.414 275.484C365.798 276.422 367.354 277.2 368.962 277.79C371.541 278.736 374.422 279.089 377.161 279.47C379.116 279.742 381.042 280.234 383.01 280.432C386.09 280.743 389.226 280.714 392.307 281.026C393.201 281.117 394.075 281.357 394.952 281.527C397.761 282.07 400.512 282.705 403.375 282.898" stroke="black" stroke-width="2" stroke-miterlimit="1.5" stroke-linecap="round" stroke-linejoin="round"/>
<path d="M403.5 282.865C405.699 283.371 407.929 283.884 410.209 283.987C411.357 284.039 412.512 283.825 413.654 283.926C415.409 284.081 417.112 284.468 418.881 284.556C421.583 284.69 424.143 284.913 426.793 285.38C427.811 285.56 428.907 285.636 429.87 286.002C433.061 287.213 435.363 289.735 437.473 292.062C438.466 293.157 439.599 294.145 440.588 295.243C441.546 296.306 442.293 297.488 443.174 298.597C444.225 299.919 445.391 301.16 446.406 302.507" stroke="black" stroke-width="2" stroke-miterlimit="1.5" stroke-linecap="round" stroke-linejoin="round"/>
<path d="M446.347 302.132C448.092 304.314 450.229 306.246 451.787 308.547C453.208 310.646 454.066 313.03 455.192 315.257C457.238 319.304 459.421 323.348 460.915 327.594" stroke="black" stroke-width="2" stroke-miterlimit="1.5" stroke-linecap="round" stroke-linejoin="round"/>
<path d="M461.052 327.885C460.863 329.51 460.97 331.284 460.44 332.861C459.148 336.709 456.728 340.247 456.188 344.282C455.681 348.063 457.21 351.992 457.852 355.719" stroke="black" stroke-width="2" stroke-miterlimit="1.5" stroke-linecap="round" stroke-linejoin="round"/>
<path d="M378.898 279.871C379.558 280.871 380.358 281.794 381.01 282.798C381.926 284.208 382.798 285.727 383.499 287.237C383.846 287.986 383.937 288.814 384.212 289.584C384.82 291.287 385.486 293.02 386.345 294.638C387.188 296.225 388.679 297.44 389.629 298.967" stroke="black" stroke-width="2" stroke-miterlimit="1.5" stroke-linecap="round" stroke-linejoin="round"/>
<path d="M389.65 298.626C391.398 301.573 393.559 304.411 394.93 307.529C396.255 310.542 397.105 313.74 398.225 316.817C399.19 319.468 400.549 321.965 401.765 324.528C402.743 326.589 403.52 328.756 404.725 330.727C409.193 338.032 416.257 343.859 421.407 350.756C423.745 353.888 425.493 357.331 427.785 360.487C432.012 366.307 436.674 371.987 440.541 378C442.395 380.881 443.473 384.164 445.39 386.994" stroke="black" stroke-width="2" stroke-miterlimit="1.5" stroke-linecap="round" stroke-linejoin="round"/>
<path d="M445.324 386.886C445.689 387.349 446.029 387.565 446.159 387.657C446.191 387.679 446.145 387.638 446.159 387.657C448.355 390.554 450.429 393.705 450.937 397.216" stroke="black" stroke-width="2" stroke-miterlimit="1.5" stroke-linecap="round" stroke-linejoin="round"/>
<path d="M430.075 285.819C433.862 286.18 437.78 286.457 441.579 286.28C444.526 286.143 447.56 285.569 450.5 285.755C453.128 285.921 455.719 286.34 458.328 286.65C461.467 287.023 464.622 287.302 467.674 288.09C470.68 288.866 473.565 290.25 476.409 291.396C478.826 292.37 481.401 293.038 483.594 294.402C484.901 295.215 485.969 296.259 487.107 297.241C490.059 299.785 492.565 302.663 495.028 305.576" stroke="black" stroke-width="2" stroke-miterlimit="1.5" stroke-linecap="round" stroke-linejoin="round"/>
<path d="M494.656 305.151C496.993 308.053 499.73 310.68 501.634 313.841C503.282 316.577 504.185 319.553 505.511 322.405C506.381 324.275 507.427 326.078 508.276 327.956C510.393 332.633 512.256 337.38 514.144 342.13C514.808 343.8 515.703 345.382 516.413 347.035C516.886 348.137 517.165 349.301 517.69 350.385C518.085 351.202 518.704 351.919 519.12 352.73C519.909 354.269 520.36 355.988 520.526 357.668" stroke="black" stroke-width="2" stroke-miterlimit="1.5" stroke-linecap="round" stroke-linejoin="round"/>
<path d="M458.08 355.613C457.864 356.893 457.684 358.159 457.757 359.455C457.831 360.77 458.158 362.054 457.847 363.365C457.101 366.51 454.352 369.083 453.462 372.249C452.417 375.962 453.134 379.61 453.503 383.343C453.784 386.18 453.361 389.131 454.021 391.926C454.478 393.868 455.604 395.446 456.62 397.18" stroke="black" stroke-width="2" stroke-miterlimit="1.5" stroke-linecap="round" stroke-linejoin="round"/>
<path d="M283.887 159.87C282.477 159.983 280.951 159.695 279.008 159.66C278.668 159.654 278.492 159.631 278.166 159.632C276.467 159.635 273.549 158.687 271.12 158.71C269.038 158.731 266.988 158.619 264.864 158.507C262.116 158.363 259.512 158.228 256.802 158.277C254.144 158.325 251.478 158.04 248.823 158.025C246.201 158.011 244.494 157.842 242.021 158.747C238.13 160.171 234.576 163.132 232.041 165.963C230.928 167.205 229.868 168.571 228.463 169.633" stroke="black" stroke-width="2" stroke-miterlimit="1.5" stroke-linecap="round" stroke-linejoin="round"/>
<path d="M229.174 169.029C228.569 169.552 227.412 170.458 226.781 170.957" stroke="black" stroke-width="2" stroke-miterlimit="1.5" stroke-linecap="round" stroke-linejoin="round"/>
<path d="M226.789 170.964C226.789 167.511 228.419 164.739 230.697 162.06C232.328 160.141 234.083 158.164 236.106 156.549C238.029 155.015 239.794 153.509 242.019 152.357C243.885 151.391 245.191 150.64 247.474 150.592C254.779 150.439 261.297 149.945 268.423 150.249C271.943 150.399 275.529 150.5 279.046 150.65C280.101 150.695 281.206 150.78 282.257 150.927C283.72 151.133 284.781 150.75 285.322 152.006C285.779 153.068 285.454 153.587 285.164 154.653C284.561 156.861 284.403 157.665 283.905 159.74" stroke="black" stroke-width="2" stroke-miterlimit="1.5" stroke-linecap="round" stroke-linejoin="round"/>
<path d="M262.072 288.7C262.072 289.806 262.221 291.058 261.84 292.119C261.545 292.939 260.972 293.659 260.479 294.391C259.258 296.206 257.876 297.857 256.447 299.544C255.519 300.64 254.807 301.863 253.953 303.003C253.407 303.732 252.444 304.237 252.221 305.033" stroke="black" stroke-width="2" stroke-miterlimit="1.5" stroke-linecap="round" stroke-linejoin="round"/>
<path d="M252.197 305.095C252.369 306.45 253.923 307.49 254.368 308.92C254.833 310.413 254.417 312.082 255.653 313.31C256.796 314.447 258.722 314.786 260.071 315.694C261.107 316.391 262.045 317.189 263.121 317.843C263.958 318.351 264.922 318.648 265.811 319.07C267.188 319.723 268.538 320.463 270.023 320.908C273.334 321.9 276.939 321.646 280.376 321.778C283.264 321.889 286.137 322.164 289.036 322.068C291.981 321.971 295.094 321.491 297.929 320.775C301.402 319.897 304.722 318.136 307.921 316.686" stroke="black" stroke-width="2" stroke-miterlimit="1.5" stroke-linecap="round" stroke-linejoin="round"/>
<path d="M308.043 316.789C310.768 315.58 313.634 314.733 316.413 313.637C317.795 313.091 319.212 312.579 320.557 311.965C321.415 311.573 322.221 311.095 323.092 310.725C324.567 310.098 326.102 309.58 327.577 308.952C328.75 308.454 329.852 307.835 331.024 307.337C332.275 306.805 333.574 306.388 334.804 305.811C337.247 304.663 339.354 303.082 341.688 301.794" stroke="black" stroke-width="2" stroke-miterlimit="1.5" stroke-linecap="round" stroke-linejoin="round"/>
<path d="M341.673 301.77C342.607 300.877 343.522 299.969 344.499 299.113C346.48 297.377 348.599 295.706 349.914 293.481C351.244 291.231 351.144 288.523 352.51 286.25C353.387 284.792 354.644 283.524 355.414 282.021C355.999 280.878 355.547 280.375 355.375 279.3C355.14 277.835 354.369 277.299 353.336 276.295C351.534 274.543 351.327 274.195 349.532 271.244C349.001 270.372 348.03 268.306 348.518 267.414" stroke="black" stroke-width="2" stroke-miterlimit="1.5" stroke-linecap="round" stroke-linejoin="round"/>
<path d="M276.947 248.78C278.217 249.033 279.783 249.327 280.86 249.86C281.83 250.34 282.571 251.118 283.429 251.732C284.457 252.467 285.654 253.019 286.865 253.477C291.265 255.138 295.785 257.129 300.511 257.941C303.153 258.395 305.95 258.262 308.629 258.27C310.735 258.276 312.986 258.542 315.044 258.057C317.078 257.577 318.911 256.589 320.687 255.617C324.202 253.693 327.367 251.52 330.207 248.854C332.035 247.136 333.939 245.575 336.063 243.98" stroke="black" stroke-width="2" stroke-miterlimit="1" stroke-linecap="round"/>
<path d="M335.788 244.165C336.622 243.455 340.293 240.312 340.416 239.096C340.432 238.937 335.039 239.942 333.465 240.116C332.048 240.272 325.699 241.044 323.197 239.87C322.118 239.364 319.853 238.688 318.499 238.756" stroke="black" stroke-width="2" stroke-miterlimit="1" stroke-linecap="round"/>
<path d="M275.787 247.865C276.676 247.986 277.576 248.024 278.462 248.161C279.748 248.36 281.005 248.681 282.295 248.875C284.794 249.253 287.375 249.465 289.914 249.401C292.687 249.331 295.371 248.955 298.112 248.624C299.447 248.463 300.803 248.168 302.153 248.13C303.204 248.1 304.269 248.28 305.311 248.381C306.325 248.48 307.342 248.49 308.36 248.518C309.325 248.544 310.33 248.637 311.293 248.533C312.5 248.402 313.444 247.704 314.587 247.421C315.609 247.167 316.675 247.192 317.706 246.993C318.51 246.838 319.258 246.527 320.058 246.363C320.945 246.181 321.855 246.139 322.76 246.084" stroke="black" stroke-width="2" stroke-miterlimit="1" stroke-linecap="round"/>
<path d="M322.755 245.949C324.392 245.888 325.835 245.528 327.415 245.283C328.569 245.104 329.77 245.088 330.864 244.685C332.509 244.078 333.959 243.118 335.442 242.26C336.157 241.845 336.971 241.546 337.648 241.08C338.572 240.443 339.435 239.716 340.378 239.107" stroke="black" stroke-width="2" stroke-miterlimit="1" stroke-linecap="round"/>
<path d="M277.182 248.815C276.834 248.75 275.321 248.252 275.262 248.043C275.125 247.563 276.514 247.764 278.228 247.75C280.036 247.735 282.209 247.693 283.385 247.599C284.395 247.518 285.268 247.486 286.191 247.207C287.232 246.893 288.244 246.448 289.175 246.069C290.715 245.444 292.201 244.674 293.528 243.737C294.296 243.195 294.949 242.492 295.764 242.008C296.88 241.345 298.142 240.884 299.405 240.495C300.56 240.139 301.782 240.041 302.982 240.242C304.856 240.557 306.741 241.485 308.694 241.276C312.402 240.879 314.817 238.659 319.231 238.756" stroke="black" stroke-width="2" stroke-miterlimit="1" stroke-linecap="round"/>
<path d="M204.832 166.075C200.775 177.716 194.949 189.952 184.848 198.463" stroke="black" stroke-width="2" stroke-miterlimit="1.5" stroke-linecap="round" stroke-linejoin="round"/>
<path d="M233.994 83.3936C221.932 87.2822 213.056 96.4357 212.074 108.108" stroke="black" stroke-width="2" stroke-miterlimit="1.5" stroke-linecap="round" stroke-linejoin="round"/>
<path d="M301.033 72.9839C309.37 76.7553 321.231 80.1378 326.457 87.4695C330.859 93.645 328.899 100.919 328.946 107.782C328.972 111.427 330.039 114.947 331.31 118.39C333.458 124.208 338.748 127.97 343.159 132.438C348.031 137.373 353.652 144.53 360.059 147.877C374.008 155.164 395.476 152.878 409.882 147.505" stroke="black" stroke-width="2" stroke-miterlimit="1.5" stroke-linecap="round" stroke-linejoin="round"/>
<path d="M295.335 61.6821C307.146 63.9602 321.693 66.4546 329.005 75.8595C334.095 82.4061 337.168 89.4295 338.781 97.2494C340.303 104.633 340.477 113.051 344.976 119.656C348.689 125.107 355.575 128.878 361.856 131.526C365.989 133.268 370.573 134.366 375.145 134.654C380.683 135.004 386.634 134.65 391.997 133.275" stroke="black" stroke-width="2" stroke-miterlimit="1.5" stroke-linecap="round" stroke-linejoin="round"/>
<path d="M377.616 166.297C381.496 167.81 386.48 168.741 388.228 172.599C388.857 173.987 389.074 175.478 389.297 176.95" stroke="black" stroke-width="2" stroke-miterlimit="1.5" stroke-linecap="round" stroke-linejoin="round"/>
<path d="M400.132 166.492C403.055 169.678 405.813 173.062 408.892 176.124C411.009 178.229 413.84 180.088 414.882 182.866C416.098 186.109 415.61 189.895 414.754 193.169C414.015 195.998 412.065 198.307 410.731 200.908" stroke="black" stroke-width="2" stroke-miterlimit="1.5" stroke-linecap="round" stroke-linejoin="round"/>
<path d="M395.41 157.137C404.02 155.967 414.283 155.046 421.867 159.533" stroke="black" stroke-width="2" stroke-miterlimit="1.5" stroke-linecap="round" stroke-linejoin="round"/>
<path d="M297.251 93.2942C304.283 93.2316 309.27 96.6462 312.438 101.952" stroke="black" stroke-width="2" stroke-miterlimit="1.5" stroke-linecap="round" stroke-linejoin="round"/>
<path d="M192.785 132.435C195.62 144.997 189.787 157.093 183.407 168.09" stroke="black" stroke-width="2" stroke-miterlimit="1.5" stroke-linecap="round" stroke-linejoin="round"/>
<path d="M196.808 218.091C204.235 229.865 206.929 244.075 199.587 256.464" stroke="black" stroke-width="2" stroke-miterlimit="1.5" stroke-linecap="round" stroke-linejoin="round"/>
<path d="M205.099 199.684C203.161 212.484 210.78 221.453 216.06 232.656C223.015 247.413 225.487 263.464 240.403 273.791" stroke="black" stroke-width="2" stroke-miterlimit="1.5" stroke-linecap="round" stroke-linejoin="round"/>
<path d="M392.075 190.39C387.152 205.179 373.447 217.276 374.913 233.629C375.334 238.316 377.68 241.84 379.689 246.049" stroke="black" stroke-width="2" stroke-miterlimit="1.5" stroke-linecap="round" stroke-linejoin="round"/>
<path d="M395.218 209.443C393.172 213.135 391.642 216.687 390.978 220.262C390.174 224.586 390.638 228.944 392.99 233.624" stroke="black" stroke-width="2" stroke-miterlimit="1.5" stroke-linecap="round" stroke-linejoin="round"/>
<path d="M292.694 83.2149C302.035 82.3251 310.844 82.3312 316.756 89.4348" stroke="black" stroke-width="2" stroke-miterlimit="1.5" stroke-linecap="round" stroke-linejoin="round"/>
<path d="M247.215 80.3217C249.859 77.4945 252.658 74.5507 256.14 72.4959C264.036 67.8373 274.013 68.4245 282.97 69.5343" stroke="black" stroke-width="2" stroke-miterlimit="1.5" stroke-linecap="round" stroke-linejoin="round"/>
<path d="M205.511 135.294C208.66 141.242 211.534 147.054 209.012 153.553" stroke="black" stroke-width="2" stroke-miterlimit="1.5" stroke-linecap="round" stroke-linejoin="round"/>
<path d="M205.168 96.9199C205.487 102.001 206.86 106.711 209.132 111.368" stroke="black" stroke-width="2" stroke-miterlimit="1.5" stroke-linecap="round" stroke-linejoin="round"/>
<path d="M278.495 180.99C274.607 183.036 272.901 183.766 269.099 185.639C267.608 186.373 263.795 187.423 262.12 187.718C259.561 188.169 256.127 188.167 253.538 187.935C249.088 187.535 243.933 186.314 242.718 182.288" stroke="black" stroke-width="2" stroke-miterlimit="1.5" stroke-linecap="round" stroke-linejoin="round"/>
<path d="M278.566 180.865C277.132 180.233 275.75 179.508 274.307 178.896C273.05 178.363 271.889 177.395 270.683 176.767C268.483 175.619 266.411 174.705 263.909 174.075C261.999 173.594 259.872 173.3 257.884 173.517C255.709 173.754 253.657 174.575 251.754 175.501C248.188 177.238 244.518 178.85 242.76 182.237" stroke="black" stroke-width="2" stroke-miterlimit="1.5" stroke-linecap="round" stroke-linejoin="round"/>
<path fill-rule="evenodd" clip-rule="evenodd" d="M263.19 174.311C265.091 175.959 266.793 177.4 266.927 180.144C266.994 181.518 265.601 183.703 264.351 184.396C261.884 185.764 259.129 186.117 256.289 185.489C255.374 185.287 253.002 183.263 252.672 182.462C251.28 179.091 251.086 176.576 254.481 174.672C256.697 173.43 261.057 173.178 263.19 174.311V174.311Z" stroke="black" stroke-width="2" stroke-miterlimit="1.5" stroke-linecap="round" stroke-linejoin="round"/>
<path fill-rule="evenodd" clip-rule="evenodd" d="M258.928 177.444C257.453 177.707 256.435 178.507 256.77 180.265C256.979 181.357 258.608 182.538 260.159 182.048C261.58 181.599 262.886 180.814 262.549 179.395C262.471 179.064 261.814 176.929 258.928 177.444V177.444Z" stroke="black" stroke-width="2" stroke-miterlimit="1.5" stroke-linecap="round" stroke-linejoin="round"/>
</g>
<defs>
<clipPath id="clip0">
<rect width="417" height="370" fill="white" transform="translate(103 26)"/>
</clipPath>
</defs>
</svg>
