<svg width="45" height="40" viewBox="0 0 45 40" fill="none" xmlns="http://www.w3.org/2000/svg">
<path d="M22.4999 1.22C17.4886 1.22243 12.6416 2.80973 8.82633 5.69791C5.01103 8.58609 2.47626 12.5867 1.67553 16.984C0.874791 21.3814 1.86033 25.8885 4.45582 29.699C7.05131 33.5096 11.0874 36.375 15.842 37.7825C16.8967 37.9581 17.2926 37.3725 17.2926 36.9038V33.3881C11.4257 34.5 10.1734 31.1613 10.1734 31.1613C9.18485 28.9931 7.80039 28.4075 7.80039 28.4075C5.8886 27.2356 7.93188 27.2944 7.93188 27.2944C10.0413 27.4119 11.162 29.2281 11.162 29.2281C13.0738 32.0994 16.1057 31.2788 17.2926 30.81C17.3852 29.8586 17.852 28.9666 18.6109 28.2906C13.9309 27.8219 8.98656 26.1813 8.98656 19.0331C8.94765 17.1659 9.72788 15.3585 11.162 13.9938C10.5394 12.3681 10.6097 10.5958 11.3596 9.01313C11.3596 9.01313 13.1392 8.48563 17.1604 10.9469C18.8789 10.5278 20.6519 10.3111 22.4338 10.3025C24.2161 10.3071 25.9897 10.5239 27.7073 10.9469C31.7284 8.54438 33.508 9.01313 33.508 9.01313C34.258 10.5958 34.3283 12.3681 33.7056 13.9938C35.1502 15.3527 35.9321 17.164 35.8811 19.0331C35.8811 26.24 30.9374 27.8225 26.2567 28.2913C26.7576 28.7453 27.1455 29.2878 27.3954 29.8836C27.6453 30.4795 27.7516 31.1153 27.7073 31.75V36.9063C27.7073 37.4338 28.1024 37.9606 29.1578 37.785C33.9145 36.3788 37.9529 33.5137 40.5501 29.7025C43.1473 25.8913 44.1337 21.3829 43.3328 16.9842C42.5319 12.5856 39.9959 8.58392 36.1788 5.69555C32.3618 2.80717 27.5128 1.22065 22.4999 1.22V1.22Z" stroke="#202020" stroke-width="2" stroke-miterlimit="10" stroke-linecap="round" stroke-linejoin="round"/>
</svg>
