<svg width="45" height="40" viewBox="0 0 45 40" fill="none" xmlns="http://www.w3.org/2000/svg">
<path d="M31.0233 1.25H13.9711C10.6432 1.25082 7.45158 2.42479 5.09612 4.51443C2.74066 6.60407 1.4137 9.43878 1.40625 12.3969V27.5219C1.41388 30.4799 2.74093 33.3144 5.09637 35.4039C7.45181 37.4934 10.6434 38.6673 13.9711 38.6681H31.0233C34.3521 38.6686 37.5452 37.4952 39.9019 35.4055C42.2586 33.3157 43.5863 30.4802 43.5938 27.5213V12.3962C43.5861 9.4374 42.2583 6.60209 39.9016 4.51244C37.545 2.42279 34.352 1.2495 31.0233 1.25ZM39.3469 27.5213C39.3457 28.4918 39.1294 29.4526 38.7105 30.3489C38.2915 31.2452 37.6781 32.0593 36.9052 32.7448C36.1322 33.4304 35.215 33.9739 34.2058 34.3443C33.1966 34.7147 32.1152 34.9048 31.0233 34.9038H13.9711C12.8792 34.9048 11.7978 34.7147 10.7886 34.3443C9.77938 33.9739 8.86213 33.4304 8.08921 32.7448C7.31629 32.0593 6.70285 31.2452 6.2839 30.3489C5.86495 29.4526 5.6487 28.4918 5.6475 27.5213V12.3962C5.6487 11.4257 5.86495 10.4649 6.2839 9.5686C6.70285 8.67233 7.31629 7.8582 8.08921 7.17267C8.86213 6.48714 9.77938 5.94365 10.7886 5.57322C11.7978 5.20279 12.8792 5.01268 13.9711 5.01375H31.0233C32.1152 5.01268 33.1967 5.20281 34.2059 5.57328C35.2152 5.94374 36.1325 6.48729 36.9054 7.17289C37.6783 7.85848 38.2918 8.6727 38.7107 9.56903C39.1296 10.4654 39.3458 11.4263 39.3469 12.3969V27.5213Z" stroke="#202020" stroke-width="2" stroke-miterlimit="10" stroke-linecap="round" stroke-linejoin="round"/>
<path d="M22.4999 10.2813C20.3475 10.285 18.2447 10.8557 16.457 11.9213C14.6694 12.987 13.2773 14.4997 12.4565 16.2683C11.6357 18.037 11.4231 19.9822 11.8456 21.8582C12.268 23.7342 13.3066 25.4568 14.83 26.8084C16.3535 28.1599 18.2934 29.0798 20.4047 29.4517C22.5161 29.8236 24.704 29.6308 26.6922 28.8978C28.6803 28.1648 30.3794 26.9244 31.5748 25.3333C32.7702 23.7423 33.4082 21.872 33.4082 19.9588C33.4017 17.3907 32.2496 14.9297 30.2047 13.1155C28.1598 11.3013 25.389 10.2821 22.4999 10.2813V10.2813ZM22.4999 25.875C21.1848 25.8724 19.9001 25.5234 18.8081 24.8721C17.7161 24.2208 16.8658 23.2964 16.3645 22.2157C15.8633 21.135 15.7337 19.9464 15.992 18.8003C16.2504 17.6541 16.8851 16.6017 17.816 15.7761C18.7469 14.9504 19.9323 14.3885 21.2223 14.1614C22.5123 13.9344 23.8491 14.0522 25.0638 14.5001C26.2784 14.9481 27.3165 15.706 28.0468 16.6781C28.7771 17.6502 29.1669 18.7929 29.1669 19.9619C29.1649 21.5319 28.4613 23.0368 27.211 24.1457C25.9607 25.2546 24.2661 25.8767 22.4999 25.875ZM36.0442 10.3538C36.0453 10.8137 35.8929 11.2636 35.6062 11.6465C35.3196 12.0294 34.9116 12.3281 34.4339 12.5048C33.9561 12.6815 33.4302 12.7282 32.9226 12.6391C32.415 12.55 31.9485 12.329 31.5822 12.0041C31.216 11.6793 30.9664 11.2651 30.865 10.8141C30.7637 10.3631 30.8151 9.89545 31.0129 9.47043C31.2106 9.04541 31.5458 8.6821 31.9759 8.42647C32.4061 8.17085 32.9118 8.0344 33.4293 8.0344C33.7723 8.03398 34.1121 8.09366 34.4292 8.21001C34.7463 8.32637 35.0345 8.49712 35.2773 8.71251C35.5202 8.9279 35.7129 9.18371 35.8445 9.46532C35.976 9.74693 36.0439 10.0488 36.0442 10.3538Z" stroke="#202020" stroke-width="2" stroke-miterlimit="10" stroke-linecap="round" stroke-linejoin="round"/>
</svg>
