<svg width="45" height="40" viewBox="0 0 45 40" fill="none" xmlns="http://www.w3.org/2000/svg">
<path d="M2.16406 13.9569H10.7337V36.9844H2.16406V13.9569Z" stroke="#202020" stroke-width="2" stroke-miterlimit="10" stroke-linecap="round" stroke-linejoin="round"/>
<path d="M32.8493 13.195C29.0918 13.195 26.8509 14.4256 24.4779 17.1206V13.9569H15.9082V36.9844H24.5433V24.5037C24.5433 21.8669 26.0592 19.2887 29.487 19.2887C32.9147 19.2887 34.958 21.8669 34.958 24.445V36.9844H43.5938V23.9181C43.5938 14.8356 36.6722 13.195 32.8493 13.195Z" stroke="#202020" stroke-width="2" stroke-miterlimit="10" stroke-linecap="round" stroke-linejoin="round"/>
<path d="M6.48211 2.76562C3.64781 2.76562 1.40625 4.58187 1.40625 6.80875C1.40625 9.03562 3.64781 10.8519 6.48211 10.8519C9.31641 10.8519 11.558 9.03562 11.558 6.80875C11.558 4.58187 9.31641 2.76562 6.48211 2.76562V2.76562Z" stroke="#202020" stroke-width="2" stroke-miterlimit="10" stroke-linecap="round" stroke-linejoin="round"/>
</svg>
