<svg width="45" height="40" viewBox="0 0 45 40" fill="none" xmlns="http://www.w3.org/2000/svg">
<path d="M42.5027 9.44313C41.749 9.69296 40.9765 9.89513 40.1908 10.0481C40.1155 10.0631 40.0368 10.0557 39.9667 10.027C39.8966 9.99829 39.8391 9.94989 39.8031 9.88926C39.767 9.82864 39.7544 9.75915 39.7671 9.69151C39.7799 9.62388 39.8173 9.56185 39.8737 9.515C40.7746 8.74791 41.5169 7.84608 42.0667 6.85063C42.0985 6.79175 42.1087 6.72551 42.0959 6.66122C42.0831 6.59694 42.048 6.53782 41.9955 6.49217C41.943 6.44653 41.8757 6.41665 41.8031 6.40673C41.7305 6.39681 41.6562 6.40736 41.5907 6.43688C40.1643 7.11708 38.6081 7.55597 37.0014 7.73125C35.3174 6.24535 33.0461 5.40414 30.6733 5.3875C29.5304 5.3866 28.3986 5.58602 27.3426 5.97435C26.2865 6.36269 25.327 6.93232 24.5189 7.65065C23.7107 8.36897 23.0699 9.22189 22.633 10.1606C22.1962 11.0993 21.9718 12.1054 21.9728 13.1213C21.9699 13.6924 22.0361 14.2621 22.1704 14.8206C15.8085 14.6494 8.38212 11.9163 4.04313 7.165C4.00695 7.12471 3.96011 7.093 3.9068 7.0727C3.85348 7.05239 3.79535 7.04413 3.73757 7.04865C3.67979 7.05317 3.62417 7.07032 3.57566 7.09858C3.52715 7.12685 3.48726 7.16534 3.45954 7.21063C2.6234 8.74186 2.37394 10.4742 2.74922 12.1433C3.12451 13.8124 4.10393 15.3265 5.53798 16.4544C5.59561 16.4961 5.6369 16.5529 5.65592 16.6168C5.67494 16.6806 5.67071 16.7482 5.64384 16.8098C5.61698 16.8713 5.56885 16.9238 5.50638 16.9595C5.4439 16.9953 5.37029 17.0125 5.2961 17.0088C4.53831 16.9788 3.7959 16.8085 3.11642 16.5088C3.06117 16.4839 2.99951 16.4724 2.93768 16.4755C2.87585 16.4786 2.81604 16.4962 2.7643 16.5265C2.71257 16.5567 2.67074 16.5986 2.64306 16.6478C2.61537 16.6971 2.60281 16.7519 2.60665 16.8069C2.67731 18.2837 3.25186 19.7065 4.25395 20.8862C5.25604 22.0658 6.63824 22.9465 8.21688 23.4113C8.29019 23.4347 8.35264 23.4792 8.39442 23.5377C8.4362 23.5962 8.45494 23.6653 8.4477 23.7343C8.44046 23.8033 8.40764 23.8681 8.3544 23.9187C8.30117 23.9693 8.23054 24.0027 8.1536 24.0138C7.49151 24.0805 6.82304 24.0805 6.16095 24.0138C6.10379 24.009 6.04619 24.0166 5.99306 24.0359C5.93992 24.0552 5.89283 24.0856 5.85581 24.1246C5.81878 24.1636 5.79292 24.21 5.78043 24.2598C5.76794 24.3096 5.76919 24.3613 5.78407 24.4106C6.38102 26.4619 9.36438 28.8638 12.7021 29.1931C12.769 29.2009 12.832 29.2256 12.8835 29.2643C12.935 29.3029 12.973 29.354 12.9928 29.4113C13.0126 29.4686 13.0134 29.5298 12.9951 29.5875C12.9769 29.6453 12.9403 29.6971 12.8899 29.7369C10.1065 31.7184 6.60878 32.7349 3.0461 32.5975C2.96627 32.5943 2.88761 32.6155 2.82309 32.6574C2.75857 32.6993 2.71203 32.7595 2.69115 32.828C2.67027 32.8966 2.67629 32.9694 2.70822 33.0346C2.74015 33.0997 2.79609 33.1532 2.86681 33.1863C6.62585 34.9386 10.8073 35.8536 15.052 35.8525C18.3506 35.8719 21.619 35.293 24.6574 34.1514C27.6958 33.0097 30.4403 31.3291 32.7231 29.2125C35.006 27.0959 36.7791 24.5876 37.9343 21.8411C39.0894 19.0945 39.6022 16.1674 39.4413 13.2388V12.9456C40.7767 12.1137 41.9488 11.0919 42.9105 9.92125C42.9558 9.86695 42.9801 9.80104 42.9797 9.73342C42.9793 9.66581 42.9542 9.60013 42.9083 9.54624C42.8623 9.49236 42.798 9.45318 42.7248 9.43459C42.6517 9.416 42.5737 9.41899 42.5027 9.44313V9.44313Z" stroke="#202020" stroke-width="2" stroke-miterlimit="10" stroke-linecap="round" stroke-linejoin="round"/>
</svg>
